<svg xmlns="http://www.w3.org/2000/svg" width="24" height="25" viewBox="0 0 24 25" fill="none">
<path d="M12 2.58984C8.13 2.58984 5 5.71984 5 9.58984C5 14.8398 12 22.5898 12 22.5898C12 22.5898 19 14.8398 19 9.58984C19 5.71984 15.87 2.58984 12 2.58984ZM7 9.58984C7 6.82984 9.24 4.58984 12 4.58984C14.76 4.58984 17 6.82984 17 9.58984C17 12.4698 14.12 16.7798 12 19.4698C9.92 16.7998 7 12.4398 7 9.58984Z" fill="#5F6368"/>
<path d="M12 12.0898C13.3807 12.0898 14.5 10.9706 14.5 9.58984C14.5 8.20913 13.3807 7.08984 12 7.08984C10.6193 7.08984 9.5 8.20913 9.5 9.58984C9.5 10.9706 10.6193 12.0898 12 12.0898Z" fill="#5F6368"/>
</svg>