<svg xmlns="http://www.w3.org/2000/svg" width="24" height="25" viewBox="0 0 24 25" fill="none">
<path d="M19 4.58984H18V2.58984H16V4.58984H8V2.58984H6V4.58984H5C3.89 4.58984 3.01 5.48984 3.01 6.58984L3 20.5898C3 21.1203 3.21071 21.629 3.58579 22.0041C3.96086 22.3791 4.46957 22.5898 5 22.5898H19C20.1 22.5898 21 21.6898 21 20.5898V6.58984C21 5.48984 20.1 4.58984 19 4.58984ZM19 20.5898H5V9.58984H19V20.5898Z" fill="#5F6368"/>
<path d="M8 11.5898C7.45 11.5898 7 12.0398 7 12.5898C7 13.1398 7.45 13.5898 8 13.5898C8.55 13.5898 9 13.1398 9 12.5898C9 12.0398 8.55 11.5898 8 11.5898ZM12 11.5898C11.45 11.5898 11 12.0398 11 12.5898C11 13.1398 11.45 13.5898 12 13.5898C12.55 13.5898 13 13.1398 13 12.5898C13 12.0398 12.55 11.5898 12 11.5898ZM16 11.5898C15.45 11.5898 15 12.0398 15 12.5898C15 13.1398 15.45 13.5898 16 13.5898C16.55 13.5898 17 13.1398 17 12.5898C17 12.0398 16.55 11.5898 16 11.5898Z" fill="#5F6368"/>
</svg>