<svg width="24" height="25" viewBox="0 0 24 25" fill="none" xmlns="http://www.w3.org/2000/svg">
<path d="M6 8.45312C7.1 8.45312 8 7.55312 8 6.45312C8 5.35312 7.1 4.45312 6 4.45312C4.9 4.45312 4 5.35312 4 6.45312C4 7.55312 4.9 8.45312 6 8.45312ZM12 20.4531C13.1 20.4531 14 19.5531 14 18.4531C14 17.3531 13.1 16.4531 12 16.4531C10.9 16.4531 10 17.3531 10 18.4531C10 19.5531 10.9 20.4531 12 20.4531ZM6 20.4531C7.1 20.4531 8 19.5531 8 18.4531C8 17.3531 7.1 16.4531 6 16.4531C4.9 16.4531 4 17.3531 4 18.4531C4 19.5531 4.9 20.4531 6 20.4531ZM6 14.4531C7.1 14.4531 8 13.5531 8 12.4531C8 11.3531 7.1 10.4531 6 10.4531C4.9 10.4531 4 11.3531 4 12.4531C4 13.5531 4.9 14.4531 6 14.4531ZM12 14.4531C13.1 14.4531 14 13.5531 14 12.4531C14 11.3531 13.1 10.4531 12 10.4531C10.9 10.4531 10 11.3531 10 12.4531C10 13.5531 10.9 14.4531 12 14.4531ZM16 6.45312C16 7.55312 16.9 8.45312 18 8.45312C19.1 8.45312 20 7.55312 20 6.45312C20 5.35312 19.1 4.45312 18 4.45312C16.9 4.45312 16 5.35312 16 6.45312ZM12 8.45312C13.1 8.45312 14 7.55312 14 6.45312C14 5.35312 13.1 4.45312 12 4.45312C10.9 4.45312 10 5.35312 10 6.45312C10 7.55312 10.9 8.45312 12 8.45312ZM18 14.4531C19.1 14.4531 20 13.5531 20 12.4531C20 11.3531 19.1 10.4531 18 10.4531C16.9 10.4531 16 11.3531 16 12.4531C16 13.5531 16.9 14.4531 18 14.4531ZM18 20.4531C19.1 20.4531 20 19.5531 20 18.4531C20 17.3531 19.1 16.4531 18 16.4531C16.9 16.4531 16 17.3531 16 18.4531C16 19.5531 16.9 20.4531 18 20.4531Z" fill="#5F6368"/>
</svg>
