<svg width="24" height="24" viewBox="0 0 24 24" fill="none" xmlns="http://www.w3.org/2000/svg">
<path d="M10 2C10.7956 2 11.5587 2.31607 12.1213 2.87868C12.6839 3.44129 13 4.20435 13 5V11C13 11.7956 12.6839 12.5587 12.1213 13.1213C11.5587 13.6839 10.7956 14 10 14C9.20435 14 8.44129 13.6839 7.87868 13.1213C7.31607 12.5587 7 11.7956 7 11V5C7 4.20435 7.31607 3.44129 7.87868 2.87868C8.44129 2.31607 9.20435 2 10 2ZM17 11C17 14.53 14.39 17.44 11 17.93V21H9V17.93C5.61 17.44 3 14.53 3 11H5C5 12.3261 5.52678 13.5979 6.46447 14.5355C7.40215 15.4732 8.67392 16 10 16C11.3261 16 12.5979 15.4732 13.5355 14.5355C14.4732 13.5979 15 12.3261 15 11H17Z" fill="#155CBA"/>
</svg>