<svg xmlns="http://www.w3.org/2000/svg" width="21" height="21" viewBox="0 0 21 21" fill="none">
<path d="M10.34 5.59001C11.2567 5.59001 12.0067 6.34001 12.0067 7.25667C12.0067 8.17334 11.2567 8.92334 10.34 8.92334C9.42334 8.92334 8.67334 8.17334 8.67334 7.25667C8.67334 6.34001 9.42334 5.59001 10.34 5.59001ZM10.34 13.09C12.59 13.09 15.1733 14.165 15.34 14.7567V15.59H5.34001V14.765C5.50667 14.165 8.09001 13.09 10.34 13.09ZM10.34 3.92334C8.49834 3.92334 7.00667 5.41501 7.00667 7.25667C7.00667 9.09834 8.49834 10.59 10.34 10.59C12.1817 10.59 13.6733 9.09834 13.6733 7.25667C13.6733 5.41501 12.1817 3.92334 10.34 3.92334ZM10.34 11.4233C8.11501 11.4233 3.67334 12.54 3.67334 14.7567V17.2567H17.0067V14.7567C17.0067 12.54 12.565 11.4233 10.34 11.4233Z" fill="#70757A"/>
</svg>