<svg width="9" height="10" viewBox="0 0 9 10" fill="none" xmlns="http://www.w3.org/2000/svg">
<path d="M-9.83506e-08 2.33997L1.125 2.33997L2.07 3.68997L3.69 3.68997L2.25 0.0899655L3.6 0.0899656L6.12 3.68997L8.1 3.68997C8.3475 3.68997 8.55937 3.77809 8.73562 3.95434C8.91187 4.13059 9 4.34247 9 4.58997C9 4.83747 8.91187 5.04934 8.73562 5.22559C8.55937 5.40184 8.3475 5.48997 8.1 5.48997L6.12 5.48997L3.6 9.08997L2.25 9.08997L3.69 5.48997L2.07 5.48997L1.125 6.83997L-2.95052e-07 6.83997L0.675 4.58997L-9.83506e-08 2.33997Z" fill="#202124"/>
</svg>
