<svg xmlns="http://www.w3.org/2000/svg" width="24" height="25" viewBox="0 0 24 25" fill="none">
<path d="M20.49 19.5898L14.76 13.8598C15.53 12.7898 16 11.4998 16 10.0898C16 8.80427 15.6188 7.54756 14.9046 6.47864C14.1903 5.40972 13.1752 4.5766 11.9874 4.08463C10.7997 3.59266 9.49279 3.46394 8.23192 3.71474C6.97104 3.96555 5.81285 4.58461 4.90381 5.49365C3.99477 6.40269 3.3757 7.56088 3.1249 8.82176C2.87409 10.0826 3.00282 11.3896 3.49479 12.5773C3.98676 13.765 4.81988 14.7802 5.8888 15.4944C6.95772 16.2086 8.21442 16.5898 9.5 16.5898C10.91 16.5898 12.2 16.1198 13.27 15.3498L19 21.0798L20.49 19.5898ZM5 10.0898C5 7.59985 7.01 5.58985 9.5 5.58985C11.99 5.58985 14 7.59985 14 10.0898C14 12.5798 11.99 14.5898 9.5 14.5898C7.01 14.5898 5 12.5798 5 10.0898Z" fill="white"/>
</svg>