<svg width="74" height="25" viewBox="0 0 74 25" fill="none" xmlns="http://www.w3.org/2000/svg">
<g clip-path="url(#clip0_114_20619)">
<path d="M9.23986 8.64312V11.1031H15.1199C14.9399 12.4831 14.4799 13.4931 13.7799 14.2031C12.9199 15.0631 11.5799 16.0031 9.23986 16.0031C5.61986 16.0031 2.78986 13.0831 2.78986 9.46313C2.78986 5.84313 5.61986 2.92313 9.23986 2.92313C11.1899 2.92313 12.6199 3.69313 13.6699 4.68313L15.3999 2.95312C13.9399 1.53313 11.9799 0.453125 9.23986 0.453125C4.27986 0.453125 0.109863 4.49312 0.109863 9.45312C0.109863 14.4131 4.27986 18.4531 9.23986 18.4531C11.9199 18.4531 13.9399 17.5731 15.5199 15.9331C17.1399 14.3131 17.6499 12.0231 17.6499 10.1831C17.6499 9.61312 17.6099 9.08312 17.5199 8.64312H9.23986Z" fill="#4285F4"/>
<path d="M24.9999 6.64307C21.7899 6.64307 19.1699 9.08307 19.1699 12.4531C19.1699 15.7931 21.7899 18.2631 24.9999 18.2631C28.2099 18.2631 30.8299 15.8031 30.8299 12.4531C30.8299 9.08307 28.2099 6.64307 24.9999 6.64307ZM24.9999 15.9731C23.2399 15.9731 21.7199 14.5231 21.7199 12.4531C21.7199 10.3631 23.2399 8.93307 24.9999 8.93307C26.7599 8.93307 28.2799 10.3631 28.2799 12.4531C28.2799 14.5231 26.7599 15.9731 24.9999 15.9731Z" fill="#EA4335"/>
<path d="M53.58 7.94307H53.49C52.92 7.26307 51.82 6.64307 50.43 6.64307C47.53 6.64307 45 9.17307 45 12.4531C45 15.7131 47.53 18.2631 50.43 18.2631C51.82 18.2631 52.92 17.6431 53.49 16.9431H53.58V17.7531C53.58 19.9731 52.39 21.1631 50.48 21.1631C48.92 21.1631 47.95 20.0431 47.55 19.0931L45.33 20.0131C45.97 21.5531 47.66 23.4431 50.48 23.4431C53.47 23.4431 56 21.6831 56 17.3931V6.94307H53.58V7.94307ZM50.65 15.9731C48.89 15.9731 47.55 14.4731 47.55 12.4531C47.55 10.4031 48.89 8.93307 50.65 8.93307C52.39 8.93307 53.75 10.4331 53.75 12.4731C53.76 14.5031 52.39 15.9731 50.65 15.9731Z" fill="#4285F4"/>
<path d="M37.9999 6.64307C34.7899 6.64307 32.1699 9.08307 32.1699 12.4531C32.1699 15.7931 34.7899 18.2631 37.9999 18.2631C41.2099 18.2631 43.8299 15.8031 43.8299 12.4531C43.8299 9.08307 41.2099 6.64307 37.9999 6.64307ZM37.9999 15.9731C36.2399 15.9731 34.7199 14.5231 34.7199 12.4531C34.7199 10.3631 36.2399 8.93307 37.9999 8.93307C39.7599 8.93307 41.2799 10.3631 41.2799 12.4531C41.2799 14.5231 39.7599 15.9731 37.9999 15.9731Z" fill="#FBBC05"/>
<path d="M58 0.693115H60.51V18.2631H58V0.693115Z" fill="#34A853"/>
<path d="M68.26 15.9731C66.96 15.9731 66.04 15.3831 65.44 14.2131L73.21 11.0031L72.95 10.3431C72.47 9.04307 70.99 6.64307 67.98 6.64307C64.99 6.64307 62.5 8.99307 62.5 12.4531C62.5 15.7131 64.96 18.2631 68.26 18.2631C70.92 18.2631 72.46 16.6331 73.1 15.6931L71.12 14.3731C70.46 15.3331 69.56 15.9731 68.26 15.9731ZM68.08 8.82307C69.11 8.82307 69.99 9.35307 70.28 10.1031L65.03 12.2731C65.03 9.83307 66.76 8.82307 68.08 8.82307Z" fill="#EA4335"/>
</g>
<defs>
<clipPath id="clip0_114_20619">
<rect width="74" height="24" fill="white" transform="translate(0 0.453125)"/>
</clipPath>
</defs>
</svg>
